<svg width="64" height="64" viewBox="0 0 64 64" xmlns="http://www.w3.org/2000/svg">
  <defs>
    <radialGradient id="steakGradient" cx="50%" cy="40%" r="60%">
      <stop offset="0%" style="stop-color:#DEB887"/>
      <stop offset="30%" style="stop-color:#CD853F"/>
      <stop offset="60%" style="stop-color:#A0522D"/>
      <stop offset="100%" style="stop-color:#8B4513"/>
    </radialGradient>
    <radialGradient id="fatGradient" cx="50%" cy="50%" r="40%">
      <stop offset="0%" style="stop-color:#F5DEB3"/>
      <stop offset="100%" style="stop-color:#DEB887"/>
    </radialGradient>
  </defs>
  
  <!-- Main steak body -->
  <ellipse cx="32" cy="32" rx="26" ry="18" fill="url(#steakGradient)" stroke="#654321" stroke-width="1.5"/>
  
  <!-- Fat marbling -->
  <ellipse cx="25" cy="28" rx="8" ry="5" fill="url(#fatGradient)" opacity="0.8"/>
  <ellipse cx="42" cy="30" rx="6" ry="4" fill="url(#fatGradient)" opacity="0.7"/>
  <ellipse cx="32" cy="38" rx="5" ry="3" fill="url(#fatGradient)" opacity="0.6"/>
  
  <!-- Red meat spots -->
  <ellipse cx="20" cy="32" rx="4" ry="2" fill="#8B0000" opacity="0.7"/>
  <ellipse cx="44" cy="29" rx="3" ry="2" fill="#DC143C" opacity="0.6"/>
  <ellipse cx="32" cy="27" rx="2" ry="1" fill="#B22222" opacity="0.8"/>
  <ellipse cx="38" cy="35" rx="2" ry="1" fill="#8B0000" opacity="0.5"/>
  
  <!-- Grill marks -->
  <rect x="15" y="25" width="34" height="2" rx="1" fill="#4B0000" opacity="0.8" transform="rotate(-15 32 32)"/>
  <rect x="15" y="35" width="34" height="2" rx="1" fill="#4B0000" opacity="0.8" transform="rotate(-15 32 32)"/>
  <rect x="20" y="30" width="24" height="1.5" rx="0.75" fill="#2F0000" opacity="0.6" transform="rotate(15 32 32)"/>
  
  <!-- Highlight for dimension -->
  <ellipse cx="28" cy="26" rx="12" ry="6" fill="#F4A460" opacity="0.3"/>
</svg>